Coordinates
version=1
nRows=17
nColumns=63
inDegrees=yes

Units are S.I. units (second, meters, Newtons, ...)
If the header above contains a line with 'inDegrees', this indicates whether rotational values are in degrees (yes) or radians (no).

endheader
time	pelvis_tilt	pelvis_list	pelvis_rotation	pelvis_tx	pelvis_ty	pelvis_tz	hip_flexion_r	hip_adduction_r	hip_rotation_r	knee_angle_r	knee_angle_r_beta	ankle_angle_r	subtalar_angle_r	mtp_angle_r	hip_flexion_l	hip_adduction_l	hip_rotation_l	knee_angle_l	knee_angle_l_beta	ankle_angle_l	subtalar_angle_l	mtp_angle_l	L5_S1_Flex_Ext	L5_S1_Lat_Bending	L5_S1_axial_rotation	L4_L5_Flex_Ext	L4_L5_Lat_Bending	L4_L5_axial_rotation	L3_L4_Flex_Ext	L3_L4_Lat_Bending	L3_L4_axial_rotation	L2_L3_Flex_Ext	L2_L3_Lat_Bending	L2_L3_axial_rotation	L1_L2_Flex_Ext	L1_L2_Lat_Bending	L1_L2_axial_rotation	L1_T12_Flex_Ext	L1_T12_Lat_Bending	L1_T12_axial_rotation	Abs_r3	Abs_r2	Abs_r1	Abs_t1	Abs_t2	neck_flexion	neck_bending	neck_rotation	arm_flex_r	arm_add_r	arm_rot_r	elbow_flex_r	pro_sup_r	wrist_flex_r	wrist_dev_r	arm_flex_l	arm_add_l	arm_rot_l	elbow_flex_l	pro_sup_l	wrist_flex_l	wrist_dev_l
6.779661	-4.259147	-6.210246	77.926974	0.233240	0.396043	0.928124	8.005114	-0.260043	-4.041968	13.567078	0.236790	29.901458	-3.826976	0.000000	4.134980	-0.116748	14.157786	5.711649	0.099687	26.705790	-6.119916	0.000000	0.040421	-0.057690	-0.058142	0.075067	-0.076728	-0.061775	0.066408	-0.140268	-0.061775	0.046198	-0.140268	-0.050874	0.037535	-0.117642	-0.047240	0.023097	-0.089362	-0.043606	0.288726	-0.652606	-0.323366	0.000000	0.000000	24.604641	7.594682	-3.244163	-3.905111	-16.705622	15.589058	62.819445	81.851104	-15.450023	8.109211	11.163277	-16.686571	54.647271	42.488264	88.548758	-25.158578	-3.210569
6.796610	-4.180889	-6.057125	77.958527	0.233601	0.396351	0.927190	7.706789	-0.172357	-3.847609	13.478509	0.235244	29.717605	-4.242828	0.000000	3.780741	-0.161239	14.851161	5.521236	0.096364	26.245977	-7.035486	0.000000	0.035189	-0.045249	-0.052792	0.065350	-0.060181	-0.056092	0.057813	-0.110018	-0.056092	0.040218	-0.110018	-0.046193	0.032677	-0.092272	-0.042894	0.020107	-0.070091	-0.039594	0.251354	-0.511865	-0.293614	0.000000	0.000000	24.483672	6.988118	-3.740958	-4.457464	-16.620809	14.687968	62.725790	81.944720	-15.367943	7.361460	11.837385	-16.673144	57.490066	41.218541	88.683225	-27.315210	-4.820350
6.813559	-4.103153	-5.915300	78.044971	0.233918	0.396634	0.926379	7.411150	-0.082259	-3.712671	13.362734	0.233224	29.535772	-4.662570	0.000000	3.467385	-0.202618	15.556372	5.367026	0.093672	25.796744	-7.908557	0.000000	0.028320	-0.034516	-0.061002	0.052593	-0.045906	-0.064814	0.046527	-0.083923	-0.064814	0.032367	-0.083923	-0.053377	0.026298	-0.070385	-0.049564	0.016182	-0.053465	-0.045751	0.202288	-0.390453	-0.339274	0.000000	0.000000	24.383590	6.517245	-4.083553	-4.960592	-16.541308	13.936370	62.606229	81.985126	-15.267487	6.430397	12.492536	-16.607715	60.176720	39.970728	88.769104	-29.301658	-6.134790
6.830508	-4.024391	-5.787291	78.149539	0.234197	0.396885	0.925718	7.122957	0.015102	-3.606225	13.215099	0.230647	29.336999	-5.079406	0.000000	3.188122	-0.244978	16.284632	5.237325	0.091409	25.355840	-8.781055	0.000000	0.019845	-0.026365	-0.064822	0.036855	-0.035066	-0.068873	0.032604	-0.064105	-0.068873	0.022681	-0.064105	-0.056719	0.018428	-0.053764	-0.052668	0.011340	-0.040840	-0.048616	0.141753	-0.298251	-0.360519	0.000000	0.000000	24.320905	6.067097	-4.462859	-5.456325	-16.456107	13.232267	62.475875	82.000192	-15.053472	5.436188	13.121959	-16.469936	62.669683	38.724521	88.728192	-31.116656	-7.196118
6.847458	-3.974086	-5.686083	78.270214	0.234414	0.397075	0.925282	6.895329	0.090199	-3.517859	13.094062	0.228534	29.136895	-5.540606	0.000000	2.986408	-0.256582	16.996163	5.171926	0.090267	24.925407	-9.619230	0.000000	0.012995	-0.023172	-0.066442	0.024133	-0.030818	-0.070594	0.021350	-0.056340	-0.070594	0.014852	-0.056340	-0.058136	0.012067	-0.047252	-0.053984	0.007425	-0.035893	-0.049831	0.092823	-0.262123	-0.369529	0.000000	0.000000	24.247295	5.822478	-4.587650	-5.926605	-16.368826	12.619824	62.295273	82.016918	-14.796342	4.264053	13.739103	-16.313888	64.995013	37.520950	88.646756	-32.522628	-7.943365
6.864407	-3.938118	-5.595639	78.392175	0.234600	0.397224	0.925011	6.691533	0.148382	-3.520237	12.968635	0.226345	28.955067	-5.924397	0.000000	2.823175	-0.255173	17.702468	5.141916	0.089743	24.506316	-10.409956	0.000000	0.005420	-0.023980	-0.062397	0.010066	-0.031894	-0.066297	0.008905	-0.058306	-0.066297	0.006195	-0.058306	-0.054597	0.005033	-0.048901	-0.050698	0.003097	-0.037146	-0.046798	0.038717	-0.271271	-0.347034	0.000000	0.000000	24.181010	5.800642	-4.442014	-6.380258	-16.270197	12.071340	62.087075	82.217546	-14.601519	3.019654	14.294024	-16.127230	67.075381	36.364892	88.585799	-33.715222	-8.464757
6.881356	-3.913267	-5.522073	78.501962	0.234706	0.397333	0.924926	6.529187	0.192324	-3.569241	12.854603	0.224355	28.780594	-6.260507	0.000000	2.713412	-0.242895	18.334637	5.163569	0.090121	24.118801	-11.088007	0.000000	-0.001993	-0.027192	-0.051923	-0.003701	-0.036165	-0.055168	-0.003274	-0.066114	-0.055168	-0.002277	-0.066114	-0.045433	-0.001850	-0.055449	-0.042188	-0.001139	-0.042120	-0.038942	-0.014233	-0.307598	-0.288781	0.000000	0.000000	24.095583	5.985058	-4.017037	-6.795535	-16.202122	11.628989	61.844306	82.457933	-14.453195	1.676249	14.798837	-15.916195	68.911360	35.254471	88.491438	-34.532091	-8.742078
6.898305	-3.895918	-5.473831	78.593522	0.234698	0.397384	0.924995	6.417886	0.215959	-3.737146	12.758423	0.222676	28.653497	-6.417931	0.000000	2.664088	-0.215666	18.986209	5.236149	0.091388	23.759507	-11.800248	0.000000	-0.007899	-0.031523	-0.031946	-0.014669	-0.041926	-0.033942	-0.012977	-0.076645	-0.033942	-0.009027	-0.076645	-0.027952	-0.007335	-0.064282	-0.025956	-0.004513	-0.048829	-0.023959	-0.056420	-0.356596	-0.177672	0.000000	0.000000	23.999613	6.330308	-3.403750	-7.203653	-16.147734	11.181178	61.605792	82.900637	-14.318318	0.354478	15.245159	-15.675043	70.479789	34.189723	88.363378	-34.992142	-8.800905
6.915254	-3.881857	-5.449458	78.648436	0.234606	0.397384	0.925228	6.354149	0.237728	-3.904852	12.668549	0.221108	28.538174	-6.530073	0.000000	2.673903	-0.184039	19.547482	5.359504	0.093541	23.461828	-12.431939	0.000000	-0.013267	-0.035930	0.000127	-0.024638	-0.047787	0.000135	-0.021796	-0.087360	0.000135	-0.015163	-0.087360	0.000111	-0.012320	-0.073268	0.000103	-0.007581	-0.055656	0.000095	-0.094764	-0.406447	0.000707	0.000000	0.000000	23.900290	6.786285	-2.662093	-7.590445	-16.116107	10.744106	61.388767	83.456810	-14.238285	-0.909240	15.655825	-15.414356	71.837439	33.166208	88.215416	-35.113733	-8.676203
6.932203	-3.866458	-5.450541	78.673906	0.234446	0.397339	0.925615	6.335523	0.264381	-4.045837	12.580519	0.219571	28.421434	-6.640403	0.000000	2.742637	-0.155686	20.008086	5.530362	0.096523	23.236061	-12.964320	0.000000	-0.018401	-0.039569	0.037998	-0.034172	-0.052626	0.040373	-0.030230	-0.096207	0.040373	-0.021030	-0.096207	0.033249	-0.017087	-0.080688	0.030874	-0.010514	-0.061292	0.028499	-0.131433	-0.447608	0.211336	0.000000	0.000000	23.817270	7.315239	-1.864819	-7.928651	-16.107383	10.351663	61.188746	84.080565	-14.234466	-2.086465	16.003256	-15.148395	72.885560	32.198807	88.093612	-34.840776	-8.390606
6.949153	-3.852290	-5.475043	78.672788	0.234247	0.397258	0.926139	6.359895	0.291183	-4.187882	12.496122	0.218098	28.319419	-6.695510	0.000000	2.871387	-0.128803	20.345159	5.756036	0.100462	23.094033	-13.361595	0.000000	-0.023411	-0.042771	0.077866	-0.043477	-0.056886	0.082733	-0.038462	-0.103994	0.082733	-0.026757	-0.103994	0.068133	-0.021740	-0.087219	0.063266	-0.013377	-0.066253	0.058400	-0.167224	-0.483836	0.433069	0.000000	0.000000	23.771219	7.864861	-1.124234	-8.196036	-16.121268	10.045346	60.993935	84.734360	-14.332846	-3.155132	16.306740	-14.893553	73.756592	31.272460	87.956848	-34.260466	-8.002052
6.966102	-3.849374	-5.520376	78.624768	0.234081	0.397143	0.926750	6.419277	0.314021	-4.280655	12.407869	0.216558	28.215330	-6.742986	0.000000	3.051047	-0.106118	20.376973	6.024882	0.105154	23.082382	-13.391035	0.000000	-0.026727	-0.046167	0.117686	-0.049635	-0.061401	0.125042	-0.043910	-0.112249	0.125042	-0.030547	-0.112249	0.102976	-0.024819	-0.094143	0.095620	-0.015272	-0.071512	0.088265	-0.190910	-0.522245	0.654537	0.000000	0.000000	23.754231	8.387111	-0.488250	-8.381185	-16.147324	9.852050	60.784200	85.268376	-14.456234	-4.098222	16.501438	-14.673184	74.231190	30.430759	87.865263	-33.251080	-7.503866
6.983051	-3.849158	-5.595772	78.504486	0.233986	0.396984	0.927441	6.526587	0.340097	-4.352072	12.331550	0.215226	28.119920	-6.707331	0.000000	3.292562	-0.095921	20.157695	6.350309	0.110834	23.188359	-13.163347	0.000000	-0.027163	-0.048070	0.156620	-0.050444	-0.063934	0.166409	-0.044626	-0.116878	0.166409	-0.031044	-0.116878	0.137043	-0.025223	-0.098025	0.127254	-0.015521	-0.074461	0.117465	-0.194021	-0.543782	0.871075	0.000000	0.000000	23.816043	8.936114	0.040482	-8.467632	-16.195772	9.809042	60.567206	85.788742	-14.633241	-4.789248	16.552915	-14.493493	74.277914	29.727269	87.746873	-31.808476	-6.808700
7.000000	-3.868045	-5.674360	78.364255	0.234005	0.396828	0.928184	6.638877	0.372457	-4.232116	12.241573	0.213656	27.946759	-6.934172	0.000000	3.551814	-0.075467	19.894404	6.686097	0.116694	23.331122	-12.885933	0.000000	-0.026536	-0.052629	0.191313	-0.049281	-0.069996	0.203271	-0.043597	-0.127961	0.203271	-0.030329	-0.127961	0.167399	-0.024642	-0.107320	0.155442	-0.015163	-0.081522	0.143485	-0.189547	-0.595346	1.064028	0.000000	0.000000	23.915352	9.320567	0.244893	-8.467576	-16.225148	9.877804	60.274232	86.005091	-14.687501	-5.353375	16.607534	-14.389568	74.311461	29.020970	87.583366	-30.392618	-6.287434
7.016949	-3.883041	-5.758801	78.174326	0.234170	0.396659	0.928933	6.756286	0.428251	-3.968269	12.150351	0.212064	27.726050	-7.306406	0.000000	3.813783	-0.068783	19.620045	7.020303	0.122527	23.508165	-12.650826	0.000000	-0.023641	-0.056612	0.223896	-0.043903	-0.075293	0.237890	-0.038839	-0.137646	0.237890	-0.027019	-0.137646	0.195909	-0.021953	-0.115442	0.181916	-0.013508	-0.087691	0.167922	-0.168863	-0.640402	1.245244	0.000000	0.000000	24.050614	9.588619	0.155728	-8.395613	-16.245030	10.050281	59.940756	86.064942	-14.681951	-5.682345	16.618592	-14.349579	74.305668	28.374697	87.259708	-28.978421	-5.835889
7.033898	-3.899382	-5.851309	77.970940	0.234478	0.396465	0.929659	6.874163	0.499903	-3.604716	12.048407	0.210284	27.466853	-7.816630	0.000000	4.094553	-0.082199	19.146301	7.364506	0.128535	23.798713	-12.157093	0.000000	-0.017529	-0.061051	0.238866	-0.032554	-0.081198	0.253795	-0.028799	-0.148440	0.253795	-0.020034	-0.148440	0.209007	-0.016278	-0.124496	0.194078	-0.010016	-0.094568	0.179149	-0.125211	-0.690624	1.328499	0.000000	0.000000	24.221499	9.697206	-0.221821	-8.236747	-16.248628	10.360471	59.558112	85.950038	-14.559230	-5.812012	16.450597	-14.392986	73.778530	27.881190	86.944304	-27.464049	-5.437087
7.050847	-3.903360	-5.931802	77.799292	0.234872	0.396264	0.930304	6.957717	0.592104	-3.183997	11.918718	0.208021	27.196829	-8.435992	0.000000	4.354690	-0.117618	18.671502	7.678393	0.134013	24.150223	-11.671253	0.000000	-0.010780	-0.065250	0.236908	-0.020019	-0.086782	0.251714	-0.017710	-0.158648	0.251714	-0.012320	-0.158648	0.207294	-0.010010	-0.133057	0.192487	-0.006160	-0.101072	0.177681	-0.076999	-0.738119	1.317609	0.000000	0.000000	24.413227	9.653596	-0.911728	-8.053887	-16.219307	10.680778	59.186957	85.763479	-14.260526	-5.653396	16.180186	-14.503623	72.954411	27.525662	86.648600	-25.911520	-4.982622
